HIERARCHY
ROOT hip
{
  OFFSET 49.3513 123.55 -83.8167
  CHANNELS 6 Xposition Yposition Zposition Zrotation Xrotation Yrotation
  JOINT abdomen
  {
    OFFSET 0 20.6881 -0.73152
    CHANNELS 3 Zrotation Xrotation Yrotation
    JOINT chest
    {
      OFFSET 0 11.7043 -0.48768
      CHANNELS 3 Zrotation Xrotation Yrotation
      JOINT neck
      {
        OFFSET 0 22.1894 -2.19456
        CHANNELS 3 Zrotation Xrotation Yrotation
        JOINT head
        {
          OFFSET -0.24384 7.07133 1.2192
          CHANNELS 3 Zrotation Xrotation Yrotation
          JOINT leftEye
          {
            OFFSET 4.14528 8.04674 8.04672
            CHANNELS 3 Zrotation Xrotation Yrotation
            End Site
            {
              OFFSET 1 0 0
            }
          }
          JOINT rightEye
          {
            OFFSET -3.6576 8.04674 8.04672
            CHANNELS 3 Zrotation Xrotation Yrotation
            End Site
            {
              OFFSET 1 0 0
            }
          }
        }
      }
      JOINT rCollar
      {
        OFFSET -2.68224 19.2634 -4.8768
        CHANNELS 3 Zrotation Xrotation Yrotation
        JOINT rShldr
        {
          OFFSET -8.77824 -1.95073 1.46304
          CHANNELS 3 Zrotation Xrotation Yrotation
          JOINT rForeArm
          {
            OFFSET -28.1742 -1.7115 0.48768
            CHANNELS 3 Zrotation Xrotation Yrotation
            JOINT rHand
            {
              OFFSET -22.5879 0.773209 7.07136
              CHANNELS 3 Zrotation Xrotation Yrotation
              JOINT rThumb1
              {
                OFFSET -1.2192 -0.487915 3.41376
                CHANNELS 3 Zrotation Xrotation Yrotation
                JOINT rThumb2
                {
                  OFFSET -3.37035 -0.52449 3.41376
                  CHANNELS 3 Zrotation Xrotation Yrotation
                  End Site
                  {
                    OFFSET -1.78271 -1.18214 1.43049
                  }
                }
              }
              JOINT rIndex1
              {
                OFFSET -7.75947 0.938293 5.60832
                CHANNELS 3 Zrotation Xrotation Yrotation
                JOINT rIndex2
                {
                  OFFSET -2.54057 -0.884171 1.56538
                  CHANNELS 3 Zrotation Xrotation Yrotation
                  End Site
                  {
                    OFFSET -1.62519 -0.234802 1.16502
                  }
                }
              }
              JOINT rMid1
              {
                OFFSET -8.24714 1.18213 3.41376
                CHANNELS 3 Zrotation Xrotation Yrotation
                JOINT rMid2
                {
                  OFFSET -3.10165 -0.590103 1.0647
                  CHANNELS 3 Zrotation Xrotation Yrotation
                  End Site
                  {
                    OFFSET -2.48547 -0.328903 0.83742
                  }
                }
              }
              JOINT rRing1
              {
                OFFSET -8.82822 0.546677 1.51678
                CHANNELS 3 Zrotation Xrotation Yrotation
                JOINT rRing2
                {
                  OFFSET -2.60934 -0.819778 -0.0198488
                  CHANNELS 3 Zrotation Xrotation Yrotation
                  End Site
                  {
                    OFFSET -2.33842 -0.294052 0.168128
                  }
                }
              }
              JOINT rPinky1
              {
                OFFSET -8.27202 -0.0477905 -0.4584
                CHANNELS 3 Zrotation Xrotation Yrotation
                JOINT rPinky2
                {
                  OFFSET -1.82734 -0.647385 -0.700984
                  CHANNELS 3 Zrotation Xrotation Yrotation
                  End Site
                  {
                    OFFSET -1.69225 -0.51767 -0.607171
                  }
                }
              }
            }
          }
        }
      }
      JOINT lCollar
      {
        OFFSET 2.68224 19.2634 -4.8768
        CHANNELS 3 Zrotation Xrotation Yrotation
        JOINT lShldr
        {
          OFFSET 8.77824 -1.95073 1.46304
          CHANNELS 3 Zrotation Xrotation Yrotation
          JOINT lForeArm
          {
            OFFSET 28.1742 -1.7115 0.48768
            CHANNELS 3 Zrotation Xrotation Yrotation
            JOINT lHand
            {
              OFFSET 22.5879 0.773209 7.07136
              CHANNELS 3 Zrotation Xrotation Yrotation
              JOINT lThumb1
              {
                OFFSET 1.2192 -0.487915 3.41376
                CHANNELS 3 Zrotation Xrotation Yrotation
                JOINT lThumb2
                {
                  OFFSET 3.37035 -0.52449 3.41376
                  CHANNELS 3 Zrotation Xrotation Yrotation
                  End Site
                  {
                    OFFSET 1.78271 -1.18214 1.43049
                  }
                }
              }
              JOINT lIndex1
              {
                OFFSET 7.75947 0.938293 5.60832
                CHANNELS 3 Zrotation Xrotation Yrotation
                JOINT lIndex2
                {
                  OFFSET 2.54057 -0.884171 1.56538
                  CHANNELS 3 Zrotation Xrotation Yrotation
                  End Site
                  {
                    OFFSET 1.62519 -0.234802 1.16502
                  }
                }
              }
              JOINT lMid1
              {
                OFFSET 8.24714 1.18213 3.41376
                CHANNELS 3 Zrotation Xrotation Yrotation
                JOINT lMid2
                {
                  OFFSET 3.10165 -0.590103 1.0647
                  CHANNELS 3 Zrotation Xrotation Yrotation
                  End Site
                  {
                    OFFSET 2.48547 -0.328903 0.83742
                  }
                }
              }
              JOINT lRing1
              {
                OFFSET 8.82822 0.546677 1.51678
                CHANNELS 3 Zrotation Xrotation Yrotation
                JOINT lRing2
                {
                  OFFSET 2.60934 -0.819778 -0.0198488
                  CHANNELS 3 Zrotation Xrotation Yrotation
                  End Site
                  {
                    OFFSET 2.33842 -0.294052 0.168128
                  }
                }
              }
              JOINT lPinky1
              {
                OFFSET 8.27202 -0.0477905 -0.4584
                CHANNELS 3 Zrotation Xrotation Yrotation
                JOINT lPinky2
                {
                  OFFSET 1.82734 -0.647385 -0.700984
                  CHANNELS 3 Zrotation Xrotation Yrotation
                  End Site
                  {
                    OFFSET 1.69225 -0.51767 -0.607171
                  }
                }
              }
            }
          }
        }
      }
    }
  }
  JOINT rButtock
  {
    OFFSET -8.77824 4.35084 1.2192
    CHANNELS 3 Zrotation Xrotation Yrotation
    JOINT rThigh
    {
      OFFSET 0 -1.70687 -2.19456
      CHANNELS 3 Zrotation Xrotation Yrotation
      JOINT rShin
      {
        OFFSET 0 -36.8199 0.73152
        CHANNELS 3 Zrotation Xrotation Yrotation
        JOINT rFoot
        {
          OFFSET 0.73152 -45.1104 -5.12064
          CHANNELS 3 Zrotation Xrotation Yrotation
          End Site
          {
            OFFSET -1.1221 -3.69964 12.103
          }
        }
      }
    }
  }
  JOINT lButtock
  {
    OFFSET 8.77824 4.35084 1.2192
    CHANNELS 3 Zrotation Xrotation Yrotation
    JOINT lThigh
    {
      OFFSET 0 -1.70687 -2.19456
      CHANNELS 3 Zrotation Xrotation Yrotation
      JOINT lShin
      {
        OFFSET 0 -36.8199 0.73152
        CHANNELS 3 Zrotation Xrotation Yrotation
        JOINT lFoot
        {
          OFFSET -0.73152 -45.1104 -5.12064
          CHANNELS 3 Zrotation Xrotation Yrotation
          End Site
          {
            OFFSET 1.1221 -3.69964 12.103
          }
        }
      }
    }
  }
}
MOTION
Frames:	6
Frame Time:	0.00833333
39.1951 85.5886 213.005 -2.0696 0.00896569 0.0395094 2.72258 0.000518373 0.0736201 0.750833 0.0131642 0.129928 -6.7042e-014 7.95139e-016 8.44835e-016 -2.01232e-013 9.54166e-015 2.33261e-015 -0 0 0 -0 0 0 -3.34965e-014 1.97038e-016 4.96962e-016 -7.02413e-013 3.90115e-015 7.35503e-015 -1.21325e-011 3.7618e-012 3.05333e-013 -1.3871e-010 -2.86267e-012 1.44397e-012 -3.27222e-010 1.95252e-012 3.83257e-012 -5.65098e-010 3.36821e-012 6.6251e-012 -3.27217e-010 1.95326e-012 3.82303e-012 7.73091 5.47488 0.417314 -3.27222e-010 1.95306e-012 3.82939e-012 2.90554 0.965183 0.102902 -3.2722e-010 1.95276e-012 3.83495e-012 10.2786 0.731801 0.0259123 -3.27228e-010 1.95405e-012 3.84529e-012 2.22167 -0.733487 -0.20892 -3.35955e-014 1.93349e-016 2.98177e-016 -7.06196e-013 3.99433e-015 5.36719e-015 -1.21176e-011 -3.48231e-012 2.54444e-013 -1.38731e-010 4.38666e-012 1.5044e-012 -3.27229e-010 1.96463e-012 3.84211e-012 -5.65107e-010 3.39683e-012 6.65054e-012 -3.27234e-010 1.9632e-012 3.84211e-012 -7.73091 5.47488 -0.417314 -3.27228e-010 1.96459e-012 3.84529e-012 -2.90554 0.965183 -0.102902 -3.27234e-010 1.96499e-012 3.84291e-012 -10.2786 0.731801 -0.0259123 -3.27228e-010 1.96558e-012 3.83893e-012 -2.22167 -0.733487 0.20892 -2.03217e-016 0 -3.88251e-019 2.53306 -8.65198 -0.274478 0.00739454 10.0933 0.189512 -0.516983 -1.45221 0.0286255 2.03217e-016 0 3.88251e-019 1.60798 -1.93183 -0.00953445 0.00859878 -2.07865 0.0706289 0.45875 3.99948 -0.132459 
40.4992 84.6002 204.867 0.240764 1.73214 -49.1894 1.15444 -1.88044 1.54406 2.07609 1.75539 0.48113 -1.34601 2.96629 -0.0177965 3.79214 3.76075 -2.52401 -0 0 0 -0 0 0 -1.38718e-014 -4.41613e-014 -8.81059e-015 23.7074 0.489547 -0.0675632 -3.32019 -1.36535 5.331 0.0759807 6.12207 0.842775 -6.24499e-010 -2.42367e-010 7.1016e-010 -1.06656e-009 -4.26463e-010 1.2337e-009 -6.24494e-010 -2.42366e-010 7.1015e-010 7.73091 5.47488 0.417314 -6.24496e-010 -2.42368e-010 7.10161e-010 2.90554 0.965183 0.102902 -6.24495e-010 -2.42367e-010 7.10163e-010 10.2786 0.731801 0.0259123 -6.24504e-010 -2.42366e-010 7.10173e-010 2.22167 -0.733487 -0.20892 -1.39675e-014 -4.41635e-014 -9.03655e-015 -22.696 6.86877 -2.332 1.95073 -0.668826 -3.24216 -0.147784 8.55072 -1.15407 6.84237e-010 1.90592e-010 -4.0168e-010 1.17074e-009 3.15763e-010 -7.16348e-010 6.84233e-010 1.9059e-010 -4.0168e-010 -7.73091 5.47488 -0.417314 6.84237e-010 1.90591e-010 -4.01679e-010 -2.90554 0.965183 -0.102902 6.84231e-010 1.90591e-010 -4.0168e-010 -10.2786 0.731801 -0.0259123 6.8424e-010 1.90592e-010 -4.01686e-010 -2.22167 -0.733487 0.20892 -2.03217e-016 0 -3.88251e-019 2.27171 -9.98312 0.152746 0.00429019 11.5483 0.222344 -0.568268 -4.2715 -0.91804 2.03217e-016 0 3.88251e-019 1.75788 -4.54466 -2.77578 0.0146771 1.37752 -0.0111481 0.554467 0.380172 1.23356 
40.4897 84.5922 204.937 3.89849 -1.05269 -101.123 -0.400973 -3.86189 3.09866 3.45588 3.5957 0.852111 -2.78152 6.11677 -0.0372558 8.18353 7.69316 -5.22915 -0 0 0 -0 0 0 8.14334e-015 -9.63249e-014 -1.96269e-014 48.7707 1.01145 -0.135494 -6.55497 -2.76921 10.976 -0.0440171 12.6036 1.76828 -9.75708e-010 -5.27474e-010 1.52805e-009 -1.65929e-009 -9.27958e-010 2.65454e-009 -9.75704e-010 -5.27474e-010 1.52804e-009 7.73091 5.47488 0.417314 -9.75703e-010 -5.27477e-010 1.52805e-009 2.90554 0.965183 0.102902 -9.75703e-010 -5.27476e-010 1.52805e-009 10.2786 0.731801 0.0259123 -9.75712e-010 -5.27473e-010 1.52806e-009 2.22167 -0.733487 -0.20892 8.05193e-015 -9.63256e-014 -1.98816e-014 -46.0568 14.0737 -4.91695 3.93061 -1.36866 -6.67073 0.0869115 17.5418 -2.45776 1.84708e-009 4.09444e-010 -8.68285e-010 3.16627e-009 6.78155e-010 -1.54851e-009 1.84707e-009 4.09441e-010 -8.68285e-010 -7.73091 5.47488 -0.417314 1.84708e-009 4.09443e-010 -8.68287e-010 -2.90554 0.965183 -0.102902 1.84707e-009 4.09442e-010 -8.68286e-010 -10.2786 0.731801 -0.0259123 1.84708e-009 4.09444e-010 -8.68294e-010 -2.22167 -0.733487 0.20892 -2.03217e-016 0 -3.88251e-019 2.01915 -11.3877 0.621743 -0.00082693 13.0865 0.257689 -0.725517 -7.25821 -1.93498 2.03217e-016 0 3.88251e-019 1.63844 -7.29071 -5.72784 0.0319905 5.04232 -0.0979784 0.841555 -3.42123 2.67588 
40.4758 84.5876 204.972 3.12052 -6.68589 -147.306 -1.69134 -5.62709 4.50419 4.66228 5.23892 1.18782 -4.03246 8.89886 -0.0539676 12.3836 11.1938 -7.70314 -0 0 0 -0 0 0 2.53776e-014 -1.32878e-013 -2.74257e-014 71.1258 1.46863 -0.202749 -9.20783 -3.95444 16.0276 -0.336788 18.3499 2.64867 -1.21905e-009 -7.31005e-010 2.12281e-009 -2.06948e-009 -1.28613e-009 3.68786e-009 -1.21905e-009 -7.31005e-010 2.12281e-009 7.73091 5.47488 0.417314 -1.21904e-009 -7.31009e-010 2.12283e-009 2.90554 0.965183 0.102902 -1.21905e-009 -7.31008e-010 2.12282e-009 10.2786 0.731801 0.0259123 -1.21906e-009 -7.31005e-010 2.12283e-009 2.22167 -0.733487 -0.20892 2.52885e-014 -1.32877e-013 -2.7706e-014 -66.3195 20.4651 -7.41621 5.62622 -1.9808 -9.7317 0.684958 25.6082 -3.79718 2.70717e-009 5.67846e-010 -1.21272e-009 4.64243e-009 9.40496e-010 -2.16235e-009 2.70717e-009 5.67844e-010 -1.21272e-009 -7.73091 5.47488 -0.417314 2.70717e-009 5.67845e-010 -1.21273e-009 -2.90554 0.965183 -0.102902 2.70716e-009 5.67844e-010 -1.21273e-009 -10.2786 0.731801 -0.0259123 2.70718e-009 5.67846e-010 -1.21273e-009 -2.22167 -0.733487 0.20892 -2.03217e-016 0 -3.88251e-019 1.81 -12.6434 1.01871 -0.00709844 14.4583 0.289539 -0.953942 -9.89972 -2.84611 2.03217e-016 0 3.88251e-019 1.29413 -9.68322 -8.40264 0.056593 8.28982 -0.176443 1.26541 -6.84171 3.99334 
40.4522 84.5771 205 -0.937078 -9.66201 -179.865 -2.52207 -6.86584 5.51909 5.48015 6.39026 1.43141 -4.8262 10.76 -0.0632114 15.398 13.6984 -9.47742 -0 0 0 -0 0 0 3.06598e-014 -1.30404e-013 -2.76808e-014 86.7083 1.76404 -0.268263 -10.9328 -4.72788 19.5628 -0.649817 22.2737 3.30003 -1.19273e-009 -7.30596e-010 2.15978e-009 -2.02333e-009 -1.28597e-009 3.7524e-009 -1.19273e-009 -7.30596e-010 2.15977e-009 7.73091 5.47488 0.417314 -1.19273e-009 -7.30601e-010 2.15979e-009 2.90554 0.965183 0.102902 -1.19273e-009 -7.30599e-010 2.15979e-009 10.2786 0.731801 0.0259123 -1.19274e-009 -7.30596e-010 2.15979e-009 2.22167 -0.733487 -0.20892 3.05679e-014 -1.30402e-013 -2.79789e-014 -80.1148 24.9573 -9.3055 6.77008 -2.39813 -11.8687 1.38436 31.4027 -4.92178 2.81038e-009 5.75127e-010 -1.25175e-009 4.82018e-009 9.52707e-010 -2.23039e-009 2.81038e-009 5.75124e-010 -1.25175e-009 -7.73091 5.47488 -0.417314 2.81038e-009 5.75125e-010 -1.25175e-009 -2.90554 0.965183 -0.102902 2.81038e-009 5.75124e-010 -1.25175e-009 -10.2786 0.731801 -0.0259123 2.81039e-009 5.75126e-010 -1.25176e-009 -2.22167 -0.733487 0.20892 -2.03217e-016 0 -3.88251e-019 1.66312 -13.5288 1.22613 -0.0125389 15.4139 0.311496 -1.15487 -11.6882 -3.46041 2.03217e-016 0 3.88251e-019 0.93262 -11.272 -10.2995 0.0781653 10.4941 -0.231842 1.67294 -9.32702 4.96483 
40.4294 84.5909 205.025 -3.16125 -10.0856 167.328 -2.78648 -7.38005 5.98432 5.76883 6.85375 1.54627 -4.94836 11.3012 -0.0599857 16.3824 14.9063 -10.1832 -0 0 0 -0 0 0 1.69666e-014 -6.21482e-014 -1.47283e-014 92.8128 1.81866 -0.340952 -11.5873 -5.02047 20.9622 -0.788157 23.658 3.54336 -6.9677e-010 -3.75581e-010 1.24075e-009 -1.18209e-009 -6.62945e-010 2.15657e-009 -6.96766e-010 -3.75582e-010 1.24074e-009 7.73091 5.47488 0.417314 -6.96764e-010 -3.75586e-010 1.24076e-009 2.90554 0.965183 0.102902 -6.96762e-010 -3.75584e-010 1.24075e-009 10.2786 0.731801 0.0259123 -6.96772e-010 -3.75582e-010 1.24076e-009 2.22167 -0.733487 -0.20892 1.68582e-014 -6.21451e-014 -1.50335e-014 -85.516 26.9209 -10.025 7.21011 -2.55928 -12.7073 1.78593 34.1075 -5.50483 1.616e-009 3.21511e-010 -7.69391e-010 2.77197e-009 5.3316e-010 -1.36618e-009 1.61599e-009 3.21509e-010 -7.6939e-010 -7.73091 5.47488 -0.417314 1.61599e-009 3.21508e-010 -7.69399e-010 -2.90554 0.965183 -0.102902 1.61599e-009 3.21508e-010 -7.69394e-010 -10.2786 0.731801 -0.0259123 1.616e-009 3.2151e-010 -7.69403e-010 -2.22167 -0.733487 0.20892 -2.03217e-016 0 -3.88251e-019 1.58722 -13.894 1.13617 -0.0151763 15.7851 0.318876 -1.22126 -12.2749 -3.62532 2.03217e-016 0 3.88251e-019 0.802103 -11.7779 -11.0559 0.0857866 11.2345 -0.253411 1.90462 -10.5551 5.44643 
